<svg width="51" height="50" viewBox="0 0 51 50" fill="none" xmlns="http://www.w3.org/2000/svg">
<path d="M51 25.0002C51 27.6761 48.1261 29.8546 47.3599 32.2692C46.5659 34.7715 47.6123 38.2572 46.1308 40.3402C44.6347 42.4439 41.0619 42.4952 39.0061 44.0263C36.9708 45.5421 35.8272 49.0117 33.3819 49.8243C31.0224 50.6083 28.1149 48.5146 25.5 48.5146C22.8851 48.5146 19.9776 50.6081 17.6181 49.8243C15.1728 49.0117 14.0292 45.5418 11.9937 44.026C9.9379 42.495 6.36507 42.4436 4.86894 40.3397C3.38767 38.2569 4.43406 34.7713 3.64007 32.2689C2.87386 29.8544 0 27.6759 0 25C0 22.3241 2.87386 20.1456 3.64007 17.7311C4.43406 15.2285 3.38767 11.7431 4.86919 9.66007C6.36532 7.55613 9.93815 7.50502 11.9939 5.97374C14.0292 4.45793 15.173 0.98825 17.6181 0.175742C19.9776 -0.608345 22.8851 1.48538 25.5 1.48538C28.1149 1.48538 31.0224 -0.608095 33.3819 0.175742C35.8272 0.98825 36.9711 4.45818 39.0063 5.97399C41.0621 7.50502 44.6349 7.55638 46.1311 9.66032C47.6123 11.7431 46.5659 15.2287 47.3599 17.7311C48.1261 20.1459 51 22.3244 51 25.0002Z" fill="url(#paint0_linear)"/>
<path d="M32.2279 47.1205C31.6166 47.1205 30.6847 46.8176 29.7833 46.5244C28.5018 46.1078 27.0493 45.6351 25.5 45.6351C23.9498 45.6351 22.4978 46.1076 21.2168 46.5244C20.3149 46.8176 19.3827 47.1205 18.772 47.1205C18.6528 47.1205 18.5571 47.1088 18.4872 47.0856C17.9273 46.8997 17.172 45.8413 16.5055 44.9081C15.7305 43.8229 14.8539 42.5948 13.6499 41.6983C12.431 40.7908 11.0077 40.3096 9.75157 39.8853C8.50808 39.4649 7.45438 39.082 7.144 38.6457C6.84385 38.2238 6.81266 37.0885 6.80438 35.7584C6.79561 34.3991 6.78562 32.8589 6.31712 31.3807C5.86275 29.9494 5.00079 28.7305 4.24042 27.6555C3.57214 26.7099 2.81421 25.6376 2.81421 25.0011C2.81421 24.3646 3.57117 23.2933 4.23944 22.3484C5.00127 21.2704 5.86299 20.0512 6.31687 18.6222C6.78635 17.142 6.79609 15.602 6.80486 14.2435C6.81339 12.9134 6.84433 11.7781 7.14449 11.3562C7.45487 10.9197 8.50881 10.537 9.75132 10.1169C11.0082 9.69207 12.4315 9.21089 13.6501 8.3034C14.8546 7.40637 15.7319 6.17801 16.5057 5.09375C17.172 4.16008 17.9273 3.10175 18.4872 2.91576C18.559 2.89258 18.6548 2.88086 18.7722 2.88086C19.3835 2.88086 20.3154 3.18377 21.2168 3.47696C22.4978 3.89356 23.9501 4.36626 25.5 4.36626C27.0493 4.36626 28.502 3.89381 29.7833 3.47696C30.6847 3.18377 31.6166 2.88086 32.2279 2.88086C32.3085 2.88086 32.4233 2.88684 32.5112 2.91526C33.0725 3.10175 33.8278 4.15983 34.4941 5.09351C35.2679 6.17751 36.1452 7.40612 37.3502 8.3034C38.5688 9.21089 39.9924 9.69182 41.2483 10.1164C42.4918 10.5367 43.5455 10.9197 43.8558 11.3562C44.156 11.7781 44.1872 12.9132 44.1955 14.2433C44.2042 15.6025 44.2142 17.1428 44.683 18.6209C45.1373 20.0515 45.9988 21.2706 46.7592 22.3461C47.4287 23.2933 48.1856 24.3646 48.1856 25.0011C48.1856 25.6378 47.4277 26.7099 46.7594 27.6555C45.9991 28.7305 45.1373 29.9494 44.6832 31.3802C44.2142 32.8589 44.2042 34.3989 44.1955 35.7579C44.1867 37.09 44.155 38.2243 43.8554 38.6457C43.5452 39.0815 42.493 39.4644 41.2517 39.8838C39.9919 40.3098 38.5686 40.7905 37.3502 41.698C36.1445 42.5958 35.2681 43.8241 34.4941 44.9079C33.8278 45.8416 33.0725 46.8999 32.5127 47.0854C32.4425 47.1086 32.3465 47.1205 32.2279 47.1205ZM25.5 45.2515C27.1073 45.2515 28.5895 45.7334 29.8968 46.1584C30.7712 46.4427 31.6748 46.7366 32.2276 46.7366C32.3417 46.7366 32.3887 46.7226 32.397 46.7201C32.8411 46.5728 33.6217 45.4796 34.1913 44.6813C34.9809 43.5746 35.8762 42.3208 37.1295 41.3874C38.3951 40.4447 39.8476 39.9538 41.1296 39.5208C41.9916 39.2293 43.2875 38.791 43.5518 38.4198C43.8047 38.0638 43.8142 36.6205 43.82 35.7581C43.8288 34.3685 43.839 32.7968 44.326 31.2616C44.7984 29.7729 45.6787 28.5283 46.4551 27.4304C47.0272 26.6211 47.8102 25.5132 47.8102 25.0008C47.8102 24.4885 47.0279 23.3815 46.4566 22.5733C45.6782 21.4728 44.7982 20.2272 44.3258 18.7394C43.8393 17.2046 43.8288 15.6329 43.82 14.2463C43.8144 13.3826 43.8057 11.9386 43.5523 11.5819C43.2877 11.2104 41.9377 10.7539 41.1308 10.4814C39.8484 10.0478 38.3954 9.55694 37.1292 8.61404C35.8767 7.68136 34.9811 6.42658 34.191 5.32013C33.6212 4.52183 32.8406 3.4286 32.3965 3.28101C32.3741 3.27378 32.3156 3.2648 32.2276 3.2648C31.6746 3.2648 30.7712 3.55874 29.8968 3.84296C28.5895 4.26803 27.107 4.74995 25.5 4.74995C23.8916 4.74995 22.4103 4.26803 21.103 3.84296C20.2286 3.55874 19.325 3.2648 18.7722 3.2648C18.6587 3.2648 18.6102 3.27876 18.6014 3.28125C18.1587 3.4286 17.3782 4.52183 16.8085 5.32013C16.0185 6.42683 15.1229 7.68136 13.8709 8.61379C12.6047 9.55694 11.152 10.0478 9.86973 10.4811C9.06234 10.7539 7.71239 11.2101 7.4478 11.5816C7.19418 11.9381 7.18541 13.3826 7.18005 14.2455C7.17128 15.6322 7.16105 17.2038 6.67355 18.7404C6.20164 20.2272 5.3214 21.4723 4.54496 22.571C3.97194 23.3818 3.1894 24.4887 3.1894 25.0008C3.1894 25.5132 3.97243 26.6211 4.54447 27.4304C5.32092 28.5283 6.20115 29.7729 6.67379 31.262C7.16032 32.7968 7.1708 34.3685 7.17957 35.7552C7.18517 36.6188 7.19394 38.0633 7.44756 38.4198C7.71214 38.7913 9.0621 39.2478 9.869 39.5203C11.1515 39.9538 12.6045 40.4447 13.8706 41.3876C15.1224 42.3198 16.0175 43.5733 16.8073 44.6795C17.3786 45.4796 18.1587 46.5726 18.6034 46.7201C18.6258 46.7276 18.6838 46.7364 18.7722 46.7364C19.3248 46.7364 20.2291 46.4424 21.1035 46.1582C22.4103 45.7331 23.8916 45.2515 25.5 45.2515Z" fill="white"/>
<path d="M10.6244 22.2754C11.2777 22.2754 11.7537 22.4038 12.0524 22.6604C12.351 22.9171 12.5004 23.2788 12.5004 23.7454C12.5004 24.0208 12.4374 24.2798 12.3114 24.5224C12.19 24.7604 11.9824 24.9541 11.6884 25.1034C11.399 25.2528 11.0047 25.3274 10.5054 25.3274H9.93137V27.2734H9.30137V22.2754H10.6244ZM10.5684 22.8144H9.93137V24.7884H10.4354C10.9114 24.7884 11.266 24.7114 11.4994 24.5574C11.7327 24.4034 11.8494 24.1421 11.8494 23.7734C11.8494 23.4514 11.7467 23.2111 11.5414 23.0524C11.336 22.8938 11.0117 22.8144 10.5684 22.8144ZM15.0057 23.4514C15.0757 23.4514 15.1503 23.4561 15.2297 23.4654C15.3137 23.4701 15.386 23.4794 15.4467 23.4934L15.3697 24.0604C15.309 24.0464 15.2413 24.0348 15.1667 24.0254C15.0967 24.0161 15.029 24.0114 14.9637 24.0114C14.7723 24.0114 14.5927 24.0651 14.4247 24.1724C14.2567 24.2751 14.1213 24.4221 14.0187 24.6134C13.9207 24.8001 13.8717 25.0194 13.8717 25.2714V27.2734H13.2557V23.5214H13.7597L13.8297 24.2074H13.8577C13.979 24.0021 14.1353 23.8248 14.3267 23.6754C14.518 23.5261 14.7443 23.4514 15.0057 23.4514ZM19.0725 25.3904C19.0725 26.0111 18.9139 26.4918 18.5965 26.8324C18.2839 27.1731 17.8592 27.3434 17.3225 27.3434C16.9912 27.3434 16.6949 27.2688 16.4335 27.1194C16.1769 26.9654 15.9739 26.7438 15.8245 26.4544C15.6752 26.1604 15.6005 25.8058 15.6005 25.3904C15.6005 24.7698 15.7569 24.2914 16.0695 23.9554C16.3822 23.6194 16.8069 23.4514 17.3435 23.4514C17.6842 23.4514 17.9829 23.5284 18.2395 23.6824C18.5009 23.8318 18.7039 24.0511 18.8485 24.3404C18.9979 24.6251 19.0725 24.9751 19.0725 25.3904ZM16.2375 25.3904C16.2375 25.8338 16.3239 26.1861 16.4965 26.4474C16.6739 26.7041 16.9539 26.8324 17.3365 26.8324C17.7145 26.8324 17.9922 26.7041 18.1695 26.4474C18.3469 26.1861 18.4355 25.8338 18.4355 25.3904C18.4355 24.9471 18.3469 24.5994 18.1695 24.3474C17.9922 24.0954 17.7122 23.9694 17.3295 23.9694C16.9469 23.9694 16.6692 24.0954 16.4965 24.3474C16.3239 24.5994 16.2375 24.9471 16.2375 25.3904ZM23.9648 23.4514C24.3895 23.4514 24.7068 23.5611 24.9168 23.7804C25.1268 23.9951 25.2318 24.3451 25.2318 24.8304V27.2734H24.6228V24.8584C24.6228 24.2658 24.3685 23.9694 23.8598 23.9694C23.4958 23.9694 23.2345 24.0744 23.0758 24.2844C22.9218 24.4944 22.8448 24.8001 22.8448 25.2014V27.2734H22.2358V24.8584C22.2358 24.2658 21.9791 23.9694 21.4658 23.9694C21.0878 23.9694 20.8265 24.0861 20.6818 24.3194C20.5371 24.5528 20.4648 24.8888 20.4648 25.3274V27.2734H19.8488V23.5214H20.3458L20.4368 24.0324H20.4718C20.5885 23.8364 20.7448 23.6918 20.9408 23.5984C21.1415 23.5004 21.3538 23.4514 21.5778 23.4514C22.1658 23.4514 22.5485 23.6614 22.7258 24.0814H22.7608C22.8868 23.8668 23.0571 23.7081 23.2718 23.6054C23.4911 23.5028 23.7221 23.4514 23.9648 23.4514ZM29.4528 25.3904C29.4528 26.0111 29.2941 26.4918 28.9768 26.8324C28.6641 27.1731 28.2395 27.3434 27.7028 27.3434C27.3715 27.3434 27.0751 27.2688 26.8138 27.1194C26.5571 26.9654 26.3541 26.7438 26.2048 26.4544C26.0555 26.1604 25.9808 25.8058 25.9808 25.3904C25.9808 24.7698 26.1371 24.2914 26.4498 23.9554C26.7625 23.6194 27.1871 23.4514 27.7238 23.4514C28.0645 23.4514 28.3631 23.5284 28.6198 23.6824C28.8811 23.8318 29.0841 24.0511 29.2288 24.3404C29.3781 24.6251 29.4528 24.9751 29.4528 25.3904ZM26.6178 25.3904C26.6178 25.8338 26.7041 26.1861 26.8768 26.4474C27.0541 26.7041 27.3341 26.8324 27.7168 26.8324C28.0948 26.8324 28.3725 26.7041 28.5498 26.4474C28.7271 26.1861 28.8158 25.8338 28.8158 25.3904C28.8158 24.9471 28.7271 24.5994 28.5498 24.3474C28.3725 24.0954 28.0925 23.9694 27.7098 23.9694C27.3271 23.9694 27.0495 24.0954 26.8768 24.3474C26.7041 24.5994 26.6178 24.9471 26.6178 25.3904ZM31.4821 26.8394C31.5754 26.8394 31.6711 26.8324 31.7691 26.8184C31.8671 26.7998 31.9464 26.7811 32.0071 26.7624V27.2314C31.9418 27.2641 31.8484 27.2898 31.7271 27.3084C31.6058 27.3318 31.4891 27.3434 31.3771 27.3434C31.1811 27.3434 30.9991 27.3108 30.8311 27.2454C30.6678 27.1754 30.5348 27.0564 30.4321 26.8884C30.3294 26.7204 30.2781 26.4848 30.2781 26.1814V23.9974H29.7461V23.7034L30.2851 23.4584L30.5301 22.6604H30.8941V23.5214H31.9791V23.9974H30.8941V26.1674C30.8941 26.3961 30.9478 26.5664 31.0551 26.6784C31.1671 26.7858 31.3094 26.8394 31.4821 26.8394ZM32.8734 22.1144C32.9667 22.1144 33.0484 22.1471 33.1184 22.2124C33.1931 22.2731 33.2304 22.3711 33.2304 22.5064C33.2304 22.6371 33.1931 22.7351 33.1184 22.8004C33.0484 22.8658 32.9667 22.8984 32.8734 22.8984C32.7707 22.8984 32.6844 22.8658 32.6144 22.8004C32.5444 22.7351 32.5094 22.6371 32.5094 22.5064C32.5094 22.3711 32.5444 22.2731 32.6144 22.2124C32.6844 22.1471 32.7707 22.1144 32.8734 22.1144ZM33.1744 23.5214V27.2734H32.5584V23.5214H33.1744ZM37.4251 25.3904C37.4251 26.0111 37.2664 26.4918 36.9491 26.8324C36.6364 27.1731 36.2117 27.3434 35.6751 27.3434C35.3437 27.3434 35.0474 27.2688 34.7861 27.1194C34.5294 26.9654 34.3264 26.7438 34.1771 26.4544C34.0277 26.1604 33.9531 25.8058 33.9531 25.3904C33.9531 24.7698 34.1094 24.2914 34.4221 23.9554C34.7347 23.6194 35.1594 23.4514 35.6961 23.4514C36.0367 23.4514 36.3354 23.5284 36.5921 23.6824C36.8534 23.8318 37.0564 24.0511 37.2011 24.3404C37.3504 24.6251 37.4251 24.9751 37.4251 25.3904ZM34.5901 25.3904C34.5901 25.8338 34.6764 26.1861 34.8491 26.4474C35.0264 26.7041 35.3064 26.8324 35.6891 26.8324C36.0671 26.8324 36.3447 26.7041 36.5221 26.4474C36.6994 26.1861 36.7881 25.8338 36.7881 25.3904C36.7881 24.9471 36.6994 24.5994 36.5221 24.3474C36.3447 24.0954 36.0647 23.9694 35.6821 23.9694C35.2994 23.9694 35.0217 24.0954 34.8491 24.3474C34.6764 24.5994 34.5901 24.9471 34.5901 25.3904ZM40.0074 23.4514C40.4554 23.4514 40.7937 23.5611 41.0224 23.7804C41.251 23.9951 41.3654 24.3451 41.3654 24.8304V27.2734H40.7564V24.8724C40.7564 24.2704 40.4764 23.9694 39.9164 23.9694C39.501 23.9694 39.214 24.0861 39.0554 24.3194C38.8967 24.5528 38.8174 24.8888 38.8174 25.3274V27.2734H38.2014V23.5214H38.6984L38.7894 24.0324H38.8244C38.9457 23.8364 39.1137 23.6918 39.3284 23.5984C39.543 23.5004 39.7694 23.4514 40.0074 23.4514Z" fill="#9E9E9E"/>
<defs>
<linearGradient id="paint0_linear" x1="43.7944" y1="-18.1513" x2="-20.7482" y2="127.227" gradientUnits="userSpaceOnUse">
<stop stop-color="#F8F8F8"/>
<stop offset="1" stop-color="#D7D7D7"/>
</linearGradient>
</defs>
</svg>
