<svg width="100" height="100" viewBox="0 0 100 100" fill="none" xmlns="http://www.w3.org/2000/svg">
<g clip-path="url(#clip0)">
<path opacity="0.1" d="M88.5923 35.8761L82.4595 24.7441C81.0111 21.9958 78.0924 20.2657 74.9043 20.2659H27.5958C24.4078 20.2657 21.489 21.9958 20.0406 24.7441L13.9078 35.8761C10.5037 43.4281 14.0428 51.3526 22.5288 52.0194C27.2689 52.4001 31.3533 50.2801 34.0251 46.472C34.5365 45.7383 35.3912 45.2985 36.3057 45.2985C37.2203 45.2985 38.075 45.7383 38.5864 46.472C40.9602 49.8464 44.9622 52.0622 49.5001 52.0622C54.0379 52.0622 58.0385 49.8464 60.4137 46.472C60.9251 45.7383 61.7798 45.2985 62.6944 45.2985C63.6089 45.2985 64.4636 45.7383 64.975 46.472C67.6468 50.2801 73.7312 53.4001 78.4713 53.0194C86.9573 52.3526 91.9964 43.4281 88.5923 35.8761Z" fill="#9C9FA3"/>
<path d="M88.112 35.0574L81.8275 22.7403C80.427 19.9943 77.6048 18.2657 74.5223 18.2659H25.4773C22.3948 18.2657 19.5726 19.9943 18.1721 22.7404L11.8936 35.0437C8.50222 42.8184 13.5832 51.8464 21.8594 52.5185C26.5423 52.9071 31.0714 50.7429 33.7101 46.8566C34.3276 45.941 35.3599 45.3921 36.4643 45.3921C37.5687 45.3921 38.6009 45.941 39.2172 46.8548C41.6296 50.3983 45.6308 52.5621 49.9998 52.5621C54.3683 52.5621 58.3683 50.3988 60.7812 46.8566C61.3987 45.941 62.4309 45.3921 63.5354 45.3921C64.6398 45.3921 65.672 45.941 66.2886 46.8553C68.9282 50.7429 73.4573 52.9071 78.1411 52.5184C86.4116 51.8468 91.4914 42.8291 88.112 35.0574Z" stroke="#9C9FA3"/>
<path opacity="0.1" d="M77.2401 61.4781C73.1188 61.4794 68.6137 60.6447 65.3537 58.1835C64.3351 57.4046 62.4035 57.4046 61.385 58.1835C58.1251 60.6441 54.1207 61.4787 49.9999 61.4781C45.8785 61.4794 41.8734 60.6447 38.6134 58.1835C37.5948 57.4046 35.6633 57.4046 34.6447 58.1835C30.7648 61.1118 27.8574 61.9263 22.9897 61.3414C22.211 61.2455 21.4277 61.4812 20.8395 61.9884C20.2513 62.4955 19.9151 63.2252 19.9165 63.9913V85.8003C19.9165 88.8014 22.3429 91.2342 25.3365 91.2342H77.1646C80.1582 91.2342 82.5846 88.8014 82.5846 85.8003V63.9993C82.5832 62.4003 81.1578 61.135 79.5347 61.3387C78.7735 61.4304 78.0072 61.477 77.2401 61.4781Z" fill="#9C9FA3"/>
<path d="M79.5019 59.0759L79.4994 59.0763C78.694 59.1757 77.8832 59.2261 77.0711 59.2274C72.7085 59.2288 68.4689 57.7814 65.0156 55.1104C64.1459 54.429 62.9235 54.429 62.0513 55.1123C58.6006 57.7807 54.3618 59.228 50 59.2274C45.6374 59.2288 41.3978 57.7814 37.9445 55.1104C37.0748 54.429 35.8524 54.429 34.9802 55.1123C30.8732 58.2879 25.6785 59.7135 20.5244 59.0789C19.8636 58.9955 19.1989 59.2004 18.6998 59.6414C18.2006 60.0823 17.9153 60.7167 17.9165 61.3836V85.491C17.9165 88.3898 20.199 90.7342 23.0081 90.7342H76.993C79.8021 90.7342 82.0846 88.3898 82.0846 85.491V61.3925C82.0834 59.9933 80.8674 58.9004 79.5019 59.0759Z" stroke="#9C9FA3"/>
<path d="M67.6815 79.4717C68.9637 79.4717 70.0148 78.4206 70.0148 77.1384C70.0148 75.8562 68.9637 74.8051 67.6815 74.8051H32.3172C31.035 74.8051 29.9839 75.8562 29.9839 77.1384C29.9839 78.4206 31.035 79.4717 32.3172 79.4717H67.6815Z" fill="white" stroke="#9C9FA3"/>
<path d="M38.5 17.5H30V19H38.5V17.5Z" fill="white"/>
<path d="M45.5 17.5H42.5V19H45.5V17.5Z" fill="white"/>
<path d="M77 14C78.3807 14 79.5 12.8807 79.5 11.5C79.5 10.1193 78.3807 9 77 9C75.6193 9 74.5 10.1193 74.5 11.5C74.5 12.8807 75.6193 14 77 14Z" stroke="#9C9FA3"/>
<path d="M10.5 53.9H4.5V55.1H10.5V53.9Z" fill="#9C9FA3"/>
<path d="M8.1001 57.5L8.1001 51.5H6.9001L6.9001 57.5H8.1001Z" fill="#9C9FA3"/>
<path d="M95.5 78.9H89.5V80.1H95.5V78.9Z" fill="#9C9FA3"/>
<path d="M93.1001 82.5V76.5H91.9001V82.5H93.1001Z" fill="#9C9FA3"/>
</g>
<defs>
<clipPath id="clip0">
<rect width="91" height="83" fill="white" transform="translate(4.5 8.5)"/>
</clipPath>
</defs>
</svg>
